<svg width="100" height="66" viewBox="0 0 100 66" fill="none" xmlns="http://www.w3.org/2000/svg">
<path d="M18.8833 0.166504C16.6345 0.166504 16.6173 3.63417 18.8833 3.59984H94.4167C95.3986 3.59984 96.1333 4.33457 96.1333 5.3165V49.9498C96.1333 52.2158 99.5667 52.2158 99.5667 49.9498V5.3165C99.5667 2.4943 97.2389 0.166504 94.4167 0.166504H18.8833ZM12.0167 7.03317C9.77127 7.03317 9.77127 10.4665 12.0167 10.4665H87.55C88.5319 10.4665 89.2667 11.2012 89.2667 12.1832V56.8165C89.2667 59.0997 92.7343 59.0825 92.7 56.8165V12.1832C92.7 9.36097 90.3722 7.03317 87.55 7.03317H12.0167ZM5.15 13.8998C2.3278 13.8998 0 16.2276 0 19.0498V60.2498C0 63.072 2.3278 65.3998 5.15 65.3998H80.6833C83.5055 65.3998 85.8333 63.072 85.8333 60.2498V19.0498C85.8333 16.2276 83.5055 13.8998 80.6833 13.8998H5.15ZM5.15 17.3332H80.6833C81.6653 17.3332 82.4 18.0679 82.4 19.0498V60.2498C82.4 61.2318 81.6653 61.9665 80.6833 61.9665H5.15C4.16807 61.9665 3.43333 61.2318 3.43333 60.2498V19.0498C3.43333 18.0679 4.16807 17.3332 5.15 17.3332ZM8.58333 20.7665C7.63573 20.7665 6.86667 21.5356 6.86667 22.4832V29.3498C6.86667 31.657 10.3 31.6021 10.3 29.3498V24.1998H15.45C17.7572 24.1998 17.7023 20.7665 15.45 20.7665H8.58333ZM42.9167 20.7665C32.5068 20.7665 24.0333 29.24 24.0333 39.6498C24.0333 50.0597 32.5068 58.5332 42.9167 58.5332C53.3265 58.5332 61.8 50.0597 61.8 39.6498C61.8 29.24 53.3265 20.7665 42.9167 20.7665ZM70.3833 20.7665C68.1311 20.7665 68.0761 24.1998 70.3833 24.1998H75.5333V29.3498C75.5333 31.6021 78.9667 31.657 78.9667 29.3498V22.4832C78.9667 21.5356 78.1976 20.7665 77.25 20.7665H70.3833ZM42.9167 24.1998C51.4657 24.1998 58.3667 31.1008 58.3667 39.6498C58.3667 48.1988 51.4657 55.0998 42.9167 55.0998C34.3677 55.0998 27.4667 48.1988 27.4667 39.6498C27.4667 31.1008 34.3677 24.1998 42.9167 24.1998ZM42.9167 27.6332C41.9656 27.6332 41.2 28.3988 41.2 29.3498V31.3892C39.2155 32.1102 37.7667 33.9986 37.7667 36.2165C37.7667 39.0318 40.1013 41.3665 42.9167 41.3665C43.878 41.3665 44.6333 42.0944 44.6333 43.0832C44.6333 44.072 43.878 44.7998 42.9167 44.7998H39.4833C38.3229 44.7827 37.7667 45.6513 37.7667 46.5165C37.7667 47.3817 38.3229 48.2503 39.4833 48.2332H41.2V49.9498C41.2 50.9009 41.9656 51.6665 42.9167 51.6665C43.8677 51.6665 44.6333 50.9009 44.6333 49.9498V47.9104C46.6178 47.1894 48.0667 45.3011 48.0667 43.0832C48.0667 40.2678 45.732 37.9332 42.9167 37.9332C41.9553 37.9332 41.2 37.2053 41.2 36.2165C41.2 35.2277 41.9553 34.4998 42.9167 34.4998H46.35C47.5105 34.517 48.0667 33.6484 48.0667 32.7832C48.0667 31.918 47.5105 31.0493 46.35 31.0665H44.6333V29.3498C44.6333 28.3988 43.8677 27.6332 42.9167 27.6332ZM8.58333 48.24C7.725 48.2332 6.86667 48.7962 6.86667 49.9498V56.8165C6.86667 57.7641 7.63573 58.5332 8.58333 58.5332H15.45C17.7023 58.5332 17.7572 55.0998 15.45 55.0998H10.3V49.9498C10.3 48.8237 9.44167 48.2469 8.58333 48.24ZM77.25 48.24C76.3917 48.2469 75.5333 48.8237 75.5333 49.9498V55.0998H70.3833C68.0761 55.0998 68.1311 58.5332 70.3833 58.5332H77.25C78.1976 58.5332 78.9667 57.7641 78.9667 56.8165V49.9498C78.9667 48.7962 78.1083 48.2332 77.25 48.24Z" fill="#E05100"/>
</svg>
