<svg width="102" height="62" viewBox="0 0 102 62" fill="none" xmlns="http://www.w3.org/2000/svg">
<path d="M52.632 20.7999C52.19 20.8135 51.765 20.9971 51.4522 21.3167L42.483 30.2587L36.958 24.7507C35.411 23.1391 32.912 25.6279 34.527 27.1715L41.2692 33.8967C41.939 34.5665 43.027 34.5665 43.7002 33.8967L53.8832 23.7409C55.0052 22.6529 54.179 20.7999 52.6354 20.7999H52.632ZM1.7 34.3999H11.9C12.8418 34.3999 13.6 35.1581 13.6 36.0999C13.6 37.0417 12.8418 37.7999 11.9 37.7999H1.7C0.7582 37.7999 0 37.0417 0 36.0999C0 35.1581 0.7582 34.3999 1.7 34.3999ZM1.7 20.7999H11.9C12.8418 20.7999 13.6 21.5581 13.6 22.4999C13.6 23.4417 12.8418 24.1999 11.9 24.1999H1.7C0.7582 24.1999 0 23.4417 0 22.4999C0 21.5581 0.7582 20.7999 1.7 20.7999ZM1.7 7.1999H11.9C12.8418 7.1999 13.6 7.9581 13.6 8.8999C13.6 9.8417 12.8418 10.5999 11.9 10.5999H1.7C0.7582 10.5999 0 9.8417 0 8.8999C0 7.9581 0.7582 7.1999 1.7 7.1999ZM83.3 44.5999C78.625 44.5999 74.8 48.4249 74.8 53.0999C74.8 57.7749 78.625 61.5999 83.3 61.5999C87.975 61.5999 91.8 57.7749 91.8 53.0999C91.8 48.4249 87.975 44.5999 83.3 44.5999ZM83.3 47.9999C86.1356 47.9999 88.4 50.2643 88.4 53.0999C88.4 55.9355 86.1356 58.1999 83.3 58.1999C80.4644 58.1999 78.2 55.9355 78.2 53.0999C78.2 50.2643 80.4644 47.9999 83.3 47.9999ZM39.1 44.5999C34.425 44.5999 30.6 48.4249 30.6 53.0999C30.6 57.7749 34.425 61.5999 39.1 61.5999C43.775 61.5999 47.6 57.7749 47.6 53.0999C47.6 48.4249 43.775 44.5999 39.1 44.5999ZM39.1 47.9999C41.9356 47.9999 44.2 50.2643 44.2 53.0999C44.2 55.9355 41.9356 58.1999 39.1 58.1999C36.2644 58.1999 34 55.9355 34 53.0999C34 50.2643 36.2644 47.9999 39.1 47.9999ZM22.1 0.399902C19.3052 0.399902 17 2.7051 17 5.4999V42.8999C17 45.6947 19.3052 47.9999 22.1 47.9999H28.9C31.1984 48.0339 31.1984 44.5659 28.9 44.5999H22.1C21.1276 44.5999 20.4 43.8723 20.4 42.8999V5.4999C20.4 4.5275 21.1276 3.7999 22.1 3.7999H66.3C67.2724 3.7999 68 4.5275 68 5.4999V44.5999H49.3C47.056 44.5999 47.0968 48.0339 49.3 47.9999H73.1C75.344 47.9999 75.3236 44.5999 73.1 44.5999H71.4V13.9999H85.7718L98.6 34.0463V42.8999C98.6 43.8723 97.8724 44.5999 96.9 44.5999H93.5C91.2764 44.5999 91.2764 47.9999 93.5 47.9999H96.9C99.6948 47.9999 102 45.6947 102 42.8999V33.5499C102 33.2269 101.908 32.9039 101.735 32.6319L88.1348 11.3819C87.822 10.8957 87.2848 10.5999 86.7 10.5999H71.4V5.4999C71.4 2.7051 69.0948 0.399902 66.3 0.399902H22.1Z" fill="#E05100"/>
</svg>
