<svg width="56" height="89" viewBox="0 0 56 89" fill="none" xmlns="http://www.w3.org/2000/svg">
<path d="M50.6406 68.5547L39.9531 63.3516L36.4375 61.6641V60.5391C40.375 57.8672 44.7344 52.6641 48.3906 42.8906C50.2891 42.8203 51.9062 41.9766 52.8906 40.5703C54.0859 38.8828 54.2969 36.6328 53.4531 34.8047C53.1719 34.1719 52.75 33.6797 52.3281 33.2578H54.0156V26.5078L50.9922 25.6641V25.2422C50.9922 16.4531 46 8.50781 38.125 4.64062C37.7031 3.09375 36.3672 1.96875 34.6797 1.96875H29.4062V0.703125H26.5938V1.89844H21.3203C19.6328 1.89844 18.2969 3.02344 17.875 4.57031C10 8.4375 5.00781 16.4531 5.00781 25.1719V25.5938L1.98438 26.5078V33.2578H3.67187C3.17969 33.6797 2.82812 34.2422 2.54687 34.8047C1.70312 36.6328 1.91406 38.8828 3.10938 40.5703C4.16406 42.0469 5.78125 42.8203 7.60938 42.8906C11.2656 52.6641 15.6953 57.7969 19.5625 60.5391V61.6641L16.9609 62.9297L5.35937 68.5547C2.47656 69.9609 0.578125 72.9141 0.578125 76.1484V88.4531H55.4219V76.1484C55.4219 72.9141 53.5234 69.9609 50.6406 68.5547ZM33.625 62.7187C33.625 62.9297 33.5547 63.2109 33.5547 63.4922C33.5547 63.6328 33.4844 63.8438 33.4844 63.9844C33.4141 64.125 33.4141 64.2656 33.3438 64.4062C33.3438 64.4062 33.3438 64.4766 33.2734 64.4766C33.2031 64.6172 33.2031 64.6875 33.1328 64.8281C33.1328 64.8984 33.0625 64.9688 32.9922 65.0391C32.9922 65.1094 32.9219 65.1797 32.8516 65.25C32.7812 65.3906 32.7109 65.5312 32.6406 65.6719C32.0078 66.5859 31.1641 67.2891 30.1797 67.7109C30.1797 67.7109 30.1797 67.7109 30.1094 67.7109C29.9688 67.7812 29.8281 67.8516 29.6875 67.8516H29.6172C29.4766 67.9219 29.3359 67.9219 29.1953 67.9219C29.125 67.9219 29.125 67.9219 29.0547 67.9219C28.9141 67.9219 28.7734 67.9922 28.6328 67.9922C28.5625 67.9922 28.5625 67.9922 28.4922 67.9922C28.2812 67.9922 28.1406 67.9922 27.9297 67.9922C24.8359 67.9922 22.3047 65.4609 22.3047 62.3672V61.9453C24.625 63 26.5938 63.2109 27.9297 63.2109C29.2656 63.2109 31.2344 63 33.5547 61.9453V62.5781C33.625 62.6484 33.625 62.6484 33.625 62.7187ZM50.6406 38.9531C50.3594 39.3047 50.0078 39.7266 49.375 39.9375C49.7266 38.3906 50.0078 36.7031 50.1484 35.1562C50.5 35.3672 50.7812 35.6484 50.9219 36.0703C51.3438 36.9141 51.2734 38.1094 50.6406 38.9531ZM4.79688 28.6172L7.82031 27.7734V25.2422C7.82031 18.0703 11.6875 11.4609 17.7344 7.875V16.3125H20.5469V5.48438C20.5469 5.0625 20.8984 4.71094 21.3203 4.71094H26.5938V20.8828H29.4062V4.71094H34.6797C35.1016 4.71094 35.4531 5.0625 35.4531 5.48438V16.2422H38.2656V7.80469C44.3828 11.3906 48.1797 18 48.1797 25.1719V27.7031L51.2031 28.5469V30.375H4.79688V28.6172ZM5.35937 38.9531C4.72656 38.1094 4.65625 36.9141 5.07812 36.0703C5.28906 35.7188 5.5 35.3672 5.85156 35.1562C5.99219 36.9141 6.34375 38.4609 6.69531 39.9375C6.0625 39.7266 5.64062 39.3047 5.35937 38.9531ZM9.92969 41.0625C9.29687 38.7422 8.66406 36.2812 8.52344 33.2578H47.4766C47.4062 35.5078 46.9141 38.8828 46.1406 40.9922C39.8125 58.6406 31.375 60.5391 28 60.5391C24.6953 60.6094 16.2578 58.7109 9.92969 41.0625ZM52.6094 85.6406H46.2812V83.6719H43.4688V85.6406H12.5312V83.6719H9.71875V85.6406H3.39062V76.1484C3.39062 73.9688 4.65625 72 6.55469 71.0859L19.8438 64.6875C19.8438 64.7578 19.9141 64.8281 19.9141 64.8984C19.9141 64.9688 19.9844 65.1094 19.9844 65.1797C20.0547 65.3203 20.125 65.5312 20.1953 65.6719C20.1953 65.7422 20.2656 65.8125 20.2656 65.8828C20.3359 66.0938 20.4766 66.3047 20.5469 66.4453C20.5469 66.4453 20.5469 66.5156 20.6172 66.5156C20.7578 66.7266 20.8984 66.9375 21.0391 67.1484C21.1094 67.2188 21.1094 67.2891 21.1797 67.3594C21.25 67.5 21.3906 67.6406 21.5312 67.7812C21.6016 67.8516 21.6719 67.9219 21.7422 67.9922C21.8125 68.1328 21.9531 68.2031 22.0937 68.3438C22.1641 68.4141 22.2344 68.4844 22.3047 68.5547C22.4453 68.6953 22.5156 68.7656 22.6563 68.9062C22.7266 68.9766 22.7969 69.0469 22.8672 69.1172C23.0078 69.2578 23.1484 69.3281 23.2891 69.4688C23.3594 69.5391 23.4297 69.5391 23.4297 69.6094C23.6406 69.75 23.8516 69.8906 24.0625 70.0312C24.1328 70.0312 24.1328 70.1016 24.2031 70.1016C24.4141 70.1719 24.5547 70.3125 24.7656 70.3828C24.8359 70.4531 24.9062 70.4531 25.0469 70.4531C25.1875 70.5234 25.3281 70.5938 25.5391 70.5938C25.6094 70.5938 25.75 70.6641 25.8203 70.6641C25.9609 70.7344 26.1719 70.7344 26.3125 70.8047C26.3828 70.8047 26.5234 70.875 26.5938 70.875C26.7344 70.875 26.9453 70.9453 27.1562 70.9453C27.2266 70.9453 27.2969 70.9453 27.4375 70.9453C27.7188 70.9453 28 71.0156 28.2109 71.0156C28.4922 71.0156 28.7031 71.0156 28.9844 71.0156C29.125 71.0156 29.2656 71.0156 29.3359 70.9453C29.4766 70.9453 29.5469 70.9453 29.6875 70.875C29.8281 70.875 30.0391 70.8047 30.1797 70.7344C30.25 70.7344 30.3203 70.7344 30.3906 70.6641C30.6016 70.5938 30.7422 70.5234 30.9531 70.5234C31.0234 70.5234 31.0234 70.5234 31.0938 70.5234C31.3047 70.4531 31.5156 70.3828 31.6562 70.3125H31.7266C31.9375 70.2422 32.1484 70.1016 32.2891 70.0312C32.5 69.8906 32.6406 69.8203 32.8516 69.6797C33.0625 69.5391 33.2031 69.4688 33.3438 69.3281C33.3438 69.3281 33.4141 69.3281 33.4141 69.2578C33.5547 69.1172 33.6953 68.9766 33.8359 68.9062L33.9062 68.8359C34.0469 68.6953 34.1172 68.625 34.2578 68.4844C34.3281 68.4141 34.3984 68.3438 34.3984 68.2734C34.4688 68.2031 34.5391 68.0625 34.6797 67.9922C34.75 67.8516 34.8906 67.7812 34.9609 67.6406C35.0312 67.5703 35.0312 67.5 35.1016 67.5C35.6641 66.7266 36.0859 65.8125 36.2969 64.8281L49.5156 71.2266C51.4844 72.1406 52.6797 74.1797 52.6797 76.2891V85.6406H52.6094Z" fill="#E05100"/>
<path d="M43.1172 25.3125H12.8828V28.125H43.1172V25.3125Z" fill="#E05100"/>
</svg>
