<svg width="86" height="90" viewBox="0 0 86 90" fill="none" xmlns="http://www.w3.org/2000/svg">
<path d="M83.14 90.0002C81.938 90.0002 80.9626 89.0247 80.9626 87.8228C80.9626 66.8891 63.9337 49.8602 43 49.8602C22.0663 49.8602 5.0374 66.8891 5.0374 87.8228C5.0374 89.0247 4.06191 90.0002 2.85998 90.0002C1.65659 90.0002 0.682556 89.0247 0.682556 87.8228C0.682556 64.4881 19.6668 45.5054 43 45.5054C66.3332 45.5054 85.3174 64.4881 85.3174 87.8228C85.3174 89.0247 84.3419 90.0002 83.14 90.0002Z" fill="#E05100"/>
<path d="M42.6733 48.2415C29.3737 48.2415 18.5533 37.4211 18.5533 24.12C18.5533 10.8203 29.3737 0 42.6733 0C55.9745 0 66.7948 10.8203 66.7948 24.12C66.7948 37.4211 55.9745 48.2415 42.6733 48.2415ZM42.6733 4.35484C31.7761 4.35484 22.9082 13.2213 22.9082 24.12C22.9082 35.0202 31.7761 43.8866 42.6733 43.8866C53.5735 43.8866 62.44 35.0202 62.44 24.12C62.44 13.2213 53.5735 4.35484 42.6733 4.35484Z" fill="#E05100"/>
<path d="M43.3513 80.4585C38.0355 80.4585 33.7111 76.1327 33.7111 70.8169C33.7111 65.5011 38.0355 61.1753 43.3513 61.1753C48.6671 61.1753 52.9929 65.5011 52.9929 70.8169C52.9929 76.1327 48.6671 80.4585 43.3513 80.4585ZM43.3513 65.5301C40.4364 65.5301 38.066 67.9021 38.066 70.8169C38.066 73.7317 40.4364 76.1037 43.3513 76.1037C46.2661 76.1037 48.6381 73.7317 48.6381 70.8169C48.6381 67.9021 46.2661 65.5301 43.3513 65.5301Z" fill="#E05100"/>
<path d="M56.2111 85.2937C55.6537 85.2937 55.0963 85.0818 54.671 84.6564L48.7411 78.7252C47.8905 77.876 47.8905 76.4969 48.7411 75.6463C49.5918 74.7956 50.9694 74.7956 51.82 75.6463L57.7499 81.5776C58.6005 82.4268 58.6005 83.8058 57.7499 84.6564C57.3245 85.0818 56.7671 85.2937 56.2111 85.2937Z" fill="#E05100"/>
</svg>
