<svg width="85" height="91" viewBox="0 0 85 91" fill="none" xmlns="http://www.w3.org/2000/svg">
<path d="M27.0966 45.2527L25.0837 59.7666C25.0096 60.3017 25.0823 60.8469 25.2939 61.3439C25.5055 61.8409 25.8482 62.2711 26.2853 62.5886C26.7223 62.906 27.2374 63.0988 27.7755 63.1464C28.3136 63.1939 28.8545 63.0944 29.3405 62.8585L42.4793 56.46L55.6611 62.86C56.1473 63.0954 56.6883 63.1944 57.2263 63.1464C57.7643 63.0984 58.2793 62.9053 58.7161 62.5876C59.153 62.2698 59.4953 61.8395 59.7067 61.3424C59.9181 60.8453 59.9906 60.3001 59.9164 59.7651L57.8917 45.2927L68.0495 34.7351C68.4241 34.3458 68.6859 33.8621 68.807 33.3357C68.928 32.8092 68.9039 32.2597 68.737 31.7459C68.5702 31.2321 68.2669 30.7733 67.8596 30.4184C67.4523 30.0635 66.9563 29.8258 66.4245 29.7309L52.0333 27.1851L45.1303 14.2609C44.8759 13.7843 44.4969 13.3857 44.0336 13.1078C43.5703 12.8299 43.0403 12.6831 42.5 12.6831C41.9598 12.6831 41.4297 12.8299 40.9665 13.1078C40.5032 13.3857 40.1241 13.7843 39.8698 14.2609L33.0007 27.1599L18.5756 29.7309C18.0438 29.8258 17.5478 30.0635 17.1405 30.4184C16.7332 30.7733 16.4299 31.2321 16.2631 31.7459C16.0962 32.2597 16.0721 32.8092 16.1931 33.3357C16.3142 33.8621 16.576 34.3458 16.9505 34.7351L27.0966 45.2527ZM33.5365 30.1439C33.9804 30.0649 34.4004 29.886 34.7649 29.6205C35.1293 29.3551 35.4285 29.0102 35.6397 28.6119L42.4556 15.6862L43.7936 14.9738L42.4572 15.6872L49.3604 28.6114C49.5719 29.0101 49.8717 29.3554 50.2367 29.6208C50.6018 29.8863 51.0226 30.065 51.4671 30.1434L65.8655 32.6328L55.709 43.1905C55.3945 43.5149 55.1583 43.9069 55.0185 44.3366C54.8787 44.7663 54.839 45.2222 54.9024 45.6696L56.9835 60.1317L43.8032 53.7332C43.3977 53.5346 42.9522 53.4313 42.5007 53.4313C42.0491 53.4313 41.6036 53.5346 41.1981 53.7332L28.086 60.182L30.1004 45.6652C30.1628 45.2185 30.1225 44.7635 29.9828 44.3347C29.843 43.9059 29.6073 43.5146 29.2936 43.1905L19.1086 32.7144L33.5365 30.1439Z" fill="#E05100"/>
<path d="M79.3297 46.7107C80.0304 43.8335 80.3865 40.8832 80.3906 37.9219C80.3906 27.8727 76.3986 18.235 69.2927 11.1292C62.1869 4.02329 52.5492 0.03125 42.5 0.03125C32.4508 0.03125 22.8132 4.02329 15.7073 11.1292C8.60143 18.235 4.60939 27.8727 4.60939 37.9219C4.61331 40.883 4.96981 43.8332 5.67139 46.7101C2.73988 49.3017 0.815562 52.8436 0.236623 56.7133C-0.342316 60.5831 0.461166 64.5331 2.50587 67.8691C4.55056 71.2052 7.70565 73.7139 11.4166 74.9543C15.1276 76.1947 19.1571 76.0875 22.7969 74.6515V89.4531C22.7969 89.6732 22.8449 89.8906 22.9374 90.0903C23.03 90.2899 23.1649 90.467 23.3328 90.6093C23.5007 90.7515 23.6975 90.8555 23.9097 90.914C24.1218 90.9725 24.3442 90.9841 24.5612 90.948L42.5 87.9583L60.4388 90.948C60.521 90.9615 60.6042 90.9685 60.6875 90.9688C61.0895 90.9688 61.475 90.8091 61.7592 90.5248C62.0435 90.2406 62.2031 89.8551 62.2031 89.4531V74.6515C65.8424 76.0843 69.8701 76.1892 73.5791 74.9481C77.2881 73.7069 80.4413 71.1989 82.4853 67.8643C84.5292 64.5297 85.3333 60.5817 84.7562 56.7133C84.1791 52.845 82.2579 49.3035 79.3297 46.7107ZM42.5 3.0625C51.7421 3.07277 60.6028 6.74874 67.138 13.2839C73.6731 19.8191 77.3491 28.6797 77.3594 37.9219C77.3621 40.9396 76.9664 43.9446 76.1826 46.8588C74.1001 54.668 69.378 61.5153 62.8188 66.2372C61.8876 66.9074 60.9233 67.5305 59.9297 68.1042L59.9274 68.1059L59.9164 68.113C59.1778 68.5496 58.3979 68.9419 57.7339 69.2674C52.9888 71.5794 47.7798 72.781 42.5016 72.7812C37.2233 72.7815 32.0142 71.5804 27.2689 69.2689C26.6028 68.9419 25.8228 68.5496 25.0712 68.1042C24.0749 67.5291 23.108 66.9044 22.1744 66.2322C15.6161 61.5083 10.8958 54.6592 8.81586 46.8489C8.03259 43.938 7.63743 40.9363 7.64064 37.9219C7.65091 28.6797 11.3269 19.8191 17.8621 13.2839C24.3972 6.74874 33.2579 3.07277 42.5 3.0625ZM16.7344 72.7812C14.0971 72.7816 11.5163 72.0173 9.3045 70.581C7.09269 69.1447 5.34474 67.0979 4.27233 64.6885C3.19991 62.2791 2.84904 59.6105 3.26219 57.0058C3.67535 54.4011 4.83481 51.972 6.60017 50.0128C6.63154 50.1063 6.67443 50.1946 6.70626 50.2885C7.02742 51.2183 7.37662 52.1375 7.76917 53.0366C7.80251 53.1133 7.84025 53.1882 7.8742 53.2639C8.2723 54.1598 8.70461 55.0384 9.17112 55.8999C9.21234 55.9757 9.24978 56.0542 9.29237 56.1301C9.76782 56.994 10.2831 57.836 10.8241 58.6605C10.9076 58.7881 10.9893 58.9165 11.0744 59.043C11.6136 59.844 12.1827 60.6234 12.7818 61.3812C12.8786 61.5039 12.9769 61.6247 13.0754 61.7463C13.6927 62.5093 14.3353 63.2516 15.0099 63.9653C15.0825 64.0422 15.1583 64.1157 15.2315 64.1927C16.6584 65.6774 18.204 67.0433 19.8529 68.2768C19.9507 68.3502 20.046 68.4259 20.1447 68.4981C20.9294 69.0731 21.7377 69.6163 22.5697 70.1275C22.6474 70.1757 22.719 70.2329 22.797 70.2805V71.361C20.9124 72.2947 18.8377 72.7807 16.7344 72.7812ZM25.8281 72.2659V71.9373L25.9342 71.9905C30.631 74.2904 35.7584 75.5781 40.9844 75.7704V85.1381L25.8281 87.6636V72.2659ZM59.1719 87.6636L44.0156 85.1381V75.7704C49.2422 75.5781 54.37 74.2899 59.0668 71.9893C59.1008 71.9731 59.1364 71.9554 59.1719 71.9377V87.6636ZM68.2656 72.7812C66.1624 72.7805 64.0877 72.2943 62.2031 71.3604V70.2805C62.2777 70.235 62.3458 70.1807 62.42 70.1347C63.2509 69.6206 64.0601 69.0769 64.8476 68.5035C64.9537 68.4261 65.0557 68.3447 65.1607 68.2661C65.9773 67.6545 66.7741 67.0185 67.5368 66.3447L67.5495 66.333C68.3153 65.6555 69.0466 64.9418 69.7546 64.2063C69.8345 64.1232 69.9169 64.0432 69.9962 63.9596C70.6676 63.249 71.3067 62.5103 71.921 61.7513C72.021 61.6278 72.1209 61.505 72.2194 61.3803C72.8192 60.6204 73.3896 59.8393 73.9306 59.037C74.0115 58.9168 74.0891 58.7945 74.1687 58.6732C74.7155 57.8396 75.236 56.9909 75.7161 56.1166C75.7486 56.0578 75.7775 55.9972 75.8097 55.9381C76.2926 55.0476 76.7399 54.1383 77.1514 53.21C77.174 53.1589 77.1992 53.1093 77.2216 53.0584C77.6233 52.1396 77.9805 51.2012 78.3074 50.2509C78.3351 50.1702 78.3724 50.0936 78.3996 50.0126C80.1649 51.9719 81.3244 54.4009 81.7376 57.0056C82.1508 59.6103 81.8 62.2789 80.7276 64.6883C79.6552 67.0977 77.9073 69.1445 75.6955 70.5809C73.4837 72.0173 70.9029 72.7816 68.2656 72.7812Z" fill="#E05100"/>
</svg>
